<svg version="1.1" viewBox="0.0 0.0 960.0 540.0" fill="none" stroke="none" stroke-linecap="square" stroke-miterlimit="10" xmlns:xlink="http://www.w3.org/1999/xlink" xmlns="http://www.w3.org/2000/svg"><clipPath id="g3b3c336e436_0_0.0"><path d="m0 0l960.0 0l0 540.0l-960.0 0l0 -540.0z" clip-rule="nonzero"/></clipPath><g clip-path="url(#g3b3c336e436_0_0.0)"><path fill="#000000" fill-opacity="0.0" d="m0 0l960.0 0l0 540.0l-960.0 0z" fill-rule="evenodd"/><path fill="#000000" fill-opacity="0.0" d="m5.616798 0l954.3937 0l0 540.0l-954.3937 0z" fill-rule="evenodd"/><path fill="#000000" d="m93.84794 437.99997l0 -336.0l67.67187 0l121.796875 145.14062l121.328125 -145.14062l68.140625 0l0 336.0l-62.0625 0l0 -246.39062l-127.40625 151.65625l-127.859375 -151.1875l0 245.92188l-61.609367 0zm433.52573 0l0 -336.0l61.609375 0l0 136.73438l220.25 0l0 -136.73438l61.609375 0l0 336.0l-61.609375 0l0 -136.73438l-220.25 0l0 136.73438l-61.609375 0z" fill-rule="nonzero"/></g></svg>